{"title":"Winners &amp; Losers - S05E13 - The Last Five Years","uid":15880614,"size":365199717,"categoryP":"video","categoryS":"tv_shows","magnet":"?xt=urn:btih:44e5e9f87f6cd2b5958d039f8a8a2ddacb7d6492&amp;dn=Winners+%26amp%3B+Losers+-+S05E13+-+The+Last+Five+Years&amp;tr=udp%3A%2F%2Ftracker.leechers-paradise.org%3A6969&amp;tr=udp%3A%2F%2Fzer0day.ch%3A1337&amp;tr=udp%3A%2F%2Fopen.demonii.com%3A1337&amp;tr=udp%3A%2F%2Ftracker.coppersurfer.tk%3A6969&amp;tr=udp%3A%2F%2Fexodus.desync.com%3A6969","seeders":8,"leechers":3,"uploader":"Bullrout","files":1,"time":1474595356,"description":"Winners &amp; Losers - S05E13 - The Last Five Years\r\n\r\nIn the final ever episode, the girls explore just how far they've come with the 15-year-reunion looming.\r\n\r\nComplete name                            : Winners &amp; Losers - S05E13 - The Last Five Years.mp4\r\nFormat                                   : MPEG-4\r\nFormat profile                           : Base Media / Version 2\r\nCodec ID                                 : mp42 (mp42/isom/avc1)\r\nFile size                                : 348 MiB\r\nDuration                                 : 43 min 54 s\r\nOverall bit rate mode                    : Variable\r\nOverall bit rate                         : 1 109 kb/s\r\n\r\nVideo\r\nID                                       : 2\r\nFormat                                   : AVC\r\nFormat/Info                              : Advanced Video Codec\r\nFormat profile                           :   \r\nFormat settings, CABAC                   : Yes\r\nFormat settings, ReFrames                : 3 frames\r\nCodec ID                                 : avc1\r\nCodec ID/Info                            : Advanced Video Coding\r\nDuration                                 : 43 min 54 s\r\nBit rate mode                            : Variable\r\nBit rate                                 : 977 kb/s\r\nMaximum bit rate                         : 1 000 kb/s\r\nWidth                                    : 720 pixels\r\nHeight                                   : 404 pixels\r\nDisplay aspect ratio                     : 16:9\r\nOriginal display aspect ratio            : 16:9\r\nFrame rate mode                          : Constant\r\nFrame rate                               : 25.000 FPS\r\nStandard                                 : PAL\r\nColor space                              : YUV\r\nChroma subsampling                       : 4:2:0\r\nBit depth                                : 8 bits\r\nScan type                                : Progressive\r\nBits/(Pixel*Frame)                       : 0.134\r\nStream size                              : 307 MiB (88%)\r\nWriting library                          : x264 core 112\r\nColor range                              : Limited\r\nColor primaries                          : BT.601 PAL\r\nTransfer characteristics                 : BT.470 System B, BT.470 System G\r\nMatrix coefficients                      : BT.601\r\n\r\nAudio\r\nID                                       : 1\r\nFormat                                   : AAC\r\nFormat/Info                              : Advanced Audio Codec\r\nFormat profile                           : LC\r\nCodec ID                                 : 40\r\nDuration                                 : 43 min 54 s\r\nBit rate mode                            : Variable\r\nBit rate                                 : 128 kb/s\r\nMaximum bit rate                         : 576 kb/s\r\nChannel(s)                               : 2 channels\r\nChannel positions                        : Front: L R\r\nSampling rate                            : 48.0 kHz\r\nFrame rate                               : 46.875 FPS (1024 spf)\r\nCompression mode                         : Lossy\r\nStream size                              : 40.2 MiB (12%)","torrent":{"xt":"urn:btih:44e5e9f87f6cd2b5958d039f8a8a2ddacb7d6492","amp;dn":"Winners+%26amp%3B+Losers+-+S05E13+-+The+Last+Five+Years","amp;tr":["udp%3A%2F%2Ftracker.leechers-paradise.org%3A6969","udp%3A%2F%2Fzer0day.ch%3A1337","udp%3A%2F%2Fopen.demonii.com%3A1337","udp%3A%2F%2Ftracker.coppersurfer.tk%3A6969","udp%3A%2F%2Fexodus.desync.com%3A6969"],"infoHash":"44e5e9f87f6cd2b5958d039f8a8a2ddacb7d6492","infoHashBuffer":{"type":"Buffer","data":[68,229,233,248,127,108,210,181,149,141,3,159,138,138,45,218,203,125,100,146]},"announce":[],"urlList":[]}}